<svg width="968" height="352" viewBox="0 0 968 352" fill="none" xmlns="http://www.w3.org/2000/svg">
<g clip-path="url(#clip0_49_59)">
<path d="M583.019 351.294H364.477V74.4659C364.477 38.4389 393.973 9.12854 430.228 9.12854H517.268C553.523 9.12854 583.019 38.4389 583.019 74.4659V351.294Z" fill="#E6E6E6"/>
<path d="M508.337 71.4171H440.11C434.632 71.4171 430.176 66.9889 430.176 61.5456V43.4104C430.176 37.9671 434.632 33.5389 440.11 33.5389H508.337C513.815 33.5389 518.271 37.9671 518.271 43.4104V61.5456C518.271 66.9889 513.815 71.4171 508.337 71.4171Z" fill="white"/>
<path d="M475.866 150.119V14.5999H475.019V150.119H475.866Z" fill="#E6E6E6"/>
<path d="M557.404 299.949H540.022C535.006 299.949 530.925 295.893 530.925 290.908V238.283C530.925 233.298 535.006 229.243 540.022 229.243H557.404C562.42 229.243 566.501 233.298 566.501 238.283V290.908C566.501 295.893 562.42 299.949 557.404 299.949Z" fill="white"/>
<path d="M443.897 336.985H396.022C391.005 336.985 386.924 332.929 386.924 327.944V234.916C386.924 229.932 391.005 225.876 396.022 225.876H443.897C448.914 225.876 452.995 229.932 452.995 234.916V327.944C452.995 332.929 448.914 336.985 443.897 336.985Z" fill="white"/>
<path d="M454.167 233.03H385.798C383.225 233.03 381.05 231.459 380.256 229.026C379.463 226.594 380.296 224.053 382.38 222.552L416.93 197.672C418.997 196.185 421.765 196.199 423.816 197.708L457.633 222.588C459.69 224.102 460.501 226.64 459.7 229.055C458.898 231.47 456.726 233.03 454.167 233.03Z" fill="#CCCCCC"/>
<path d="M564.525 233.872H532.947C530.374 233.872 528.198 232.3 527.404 229.868C526.611 227.436 527.444 224.895 529.528 223.394L545.486 211.902C547.554 210.415 550.321 210.428 552.372 211.938L567.991 223.43C570.048 224.943 570.859 227.481 570.058 229.896C569.256 232.311 567.084 233.872 564.525 233.872Z" fill="#CCCCCC"/>
<path d="M550.439 184.631H530.893C526.473 184.631 522.877 181.057 522.877 176.665V121.89C522.877 117.498 526.473 113.925 530.893 113.925H550.439C554.859 113.925 558.454 117.498 558.454 121.89V176.665C558.454 181.057 554.859 184.631 550.439 184.631Z" fill="white"/>
<path d="M483.521 184.631H463.975C459.555 184.631 455.96 181.057 455.96 176.665V121.89C455.96 117.498 459.555 113.925 463.975 113.925H483.521C487.941 113.925 491.537 117.498 491.537 121.89V176.665C491.537 181.057 487.941 184.631 483.521 184.631Z" fill="white"/>
<path d="M415.756 184.631H396.21C391.79 184.631 388.195 181.057 388.195 176.665V121.89C388.195 117.498 391.79 113.925 396.21 113.925H415.756C420.176 113.925 423.771 117.498 423.771 121.89V176.665C423.771 181.057 420.176 184.631 415.756 184.631Z" fill="white"/>
<path d="M556.338 120.238H391.157C388.199 120.238 386.388 118.156 385.905 116.093C385.422 114.029 386.124 111.367 388.779 110.069L472.255 69.3069C473.759 68.5728 475.553 68.5794 477.053 69.3275L558.758 110.09C561.073 111.246 562.183 113.611 561.586 116.115C560.988 118.619 558.929 120.238 556.338 120.238Z" fill="#CCCCCC"/>
<path d="M582.596 350.874H372.979V329.734C372.979 313.078 397.791 299.528 428.289 299.528H582.596V350.874Z" fill="#3F3D56"/>
<path d="M501.277 269.646H490.266V310.049H501.277V269.646Z" fill="#3F3D56"/>
<path d="M582.596 269.646H571.584V310.049H582.596V269.646Z" fill="#3F3D56"/>
<path d="M574.972 273.013H499.583V273.855H574.972V273.013Z" fill="#3F3D56"/>
<path d="M566.501 149.278H383.536V150.119H566.501V149.278Z" fill="#E6E6E6"/>
<path d="M574.972 286.481H499.583V287.322H574.972V286.481Z" fill="#3F3D56"/>
<path d="M574.972 293.215H499.583V294.056H574.972V293.215Z" fill="#3F3D56"/>
<path d="M516.527 37.1311H430.969C429.637 37.1311 428.511 36.3181 428.1 35.0588C427.69 33.8003 428.121 32.4851 429.199 31.7083L472.437 0.572255C473.507 -0.196321 474.939 -0.191392 476 0.591159L518.321 31.7272C519.386 32.5097 519.805 33.8233 519.39 35.0736C518.976 36.323 517.851 37.1311 516.527 37.1311Z" fill="#CCCCCC"/>
<path d="M405.56 282.272H390.312V283.955H405.56V282.272Z" fill="#E6E6E6"/>
<path d="M334.971 351.294H116.429V74.4659C116.429 38.4389 145.925 9.12854 182.18 9.12854H269.221C305.475 9.12854 334.971 38.4389 334.971 74.4659V351.294Z" fill="#E6E6E6"/>
<path d="M260.289 71.4171H192.062C186.584 71.4171 182.128 66.9889 182.128 61.5456V43.4104C182.128 37.9671 186.584 33.5389 192.062 33.5389H260.289C265.766 33.5389 270.223 37.9671 270.223 43.4104V61.5456C270.223 66.9889 265.766 71.4171 260.289 71.4171Z" fill="white"/>
<path d="M227.818 150.119V14.5999H226.971V150.119H227.818Z" fill="#E6E6E6"/>
<path d="M309.356 299.949H291.975C286.958 299.949 282.877 295.893 282.877 290.908V238.283C282.877 233.298 286.958 229.243 291.975 229.243H309.356C314.373 229.243 318.454 233.298 318.454 238.283V290.908C318.454 295.893 314.373 299.949 309.356 299.949Z" fill="white"/>
<path d="M195.85 336.985H147.974C142.958 336.985 138.876 332.929 138.876 327.944V234.916C138.876 229.932 142.958 225.876 147.974 225.876H195.85C200.866 225.876 204.947 229.932 204.947 234.916V327.944C204.947 332.929 200.866 336.985 195.85 336.985Z" fill="white"/>
<path d="M206.119 233.03H137.751C135.177 233.03 133.002 231.459 132.208 229.026C131.415 226.594 132.248 224.053 134.332 222.552L168.882 197.672C170.949 196.185 173.717 196.199 175.768 197.708L209.585 222.588C211.643 224.102 212.453 226.64 211.652 229.055C210.85 231.47 208.678 233.03 206.119 233.03Z" fill="#CCCCCC"/>
<path d="M316.477 233.872H284.899C282.326 233.872 280.151 232.3 279.357 229.868C278.563 227.436 279.397 224.895 281.48 223.394L297.439 211.902C299.506 210.415 302.273 210.428 304.324 211.938L319.944 223.43C322.001 224.943 322.812 227.481 322.01 229.896C321.208 232.311 319.036 233.872 316.477 233.872Z" fill="#CCCCCC"/>
<path d="M302.391 184.631H282.845C278.425 184.631 274.83 181.057 274.83 176.665V121.89C274.83 117.498 278.425 113.925 282.845 113.925H302.391C306.811 113.925 310.406 117.498 310.406 121.89V176.665C310.406 181.057 306.811 184.631 302.391 184.631Z" fill="white"/>
<path d="M235.473 184.631H215.927C211.507 184.631 207.912 181.057 207.912 176.665V121.89C207.912 117.498 211.507 113.925 215.927 113.925H235.473C239.893 113.925 243.488 117.498 243.488 121.89V176.665C243.488 181.057 239.893 184.631 235.473 184.631Z" fill="white"/>
<path d="M167.708 184.631H148.162C143.742 184.631 140.147 181.057 140.147 176.665V121.89C140.147 117.498 143.742 113.925 148.162 113.925H167.708C172.128 113.925 175.724 117.498 175.724 121.89V176.665C175.724 181.057 172.128 184.631 167.708 184.631Z" fill="white"/>
<path d="M308.29 120.238H143.11C140.151 120.238 138.34 118.156 137.857 116.093C137.375 114.029 138.076 111.367 140.731 110.069L224.207 69.3069C225.711 68.5728 227.505 68.5794 229.005 69.3275L310.71 110.09C313.025 111.246 314.135 113.611 313.538 116.115C312.94 118.619 310.881 120.238 308.29 120.238Z" fill="#CCCCCC"/>
<path d="M334.548 350.874H219.771V329.734C219.771 313.078 233.357 299.528 250.056 299.528H334.548V350.874Z" fill="#3F3D56"/>
<path d="M253.23 269.646H242.218V310.049H253.23V269.646Z" fill="#3F3D56"/>
<path d="M334.548 269.646H323.536V310.049H334.548V269.646Z" fill="#3F3D56"/>
<path d="M326.924 273.013H251.536V273.855H326.924V273.013Z" fill="#3F3D56"/>
<path d="M318.453 149.278H135.488V150.119H318.453V149.278Z" fill="#E6E6E6"/>
<path d="M326.924 286.481H251.536V287.322H326.924V286.481Z" fill="#3F3D56"/>
<path d="M326.924 293.215H251.536V294.056H326.924V293.215Z" fill="#3F3D56"/>
<path d="M268.479 37.1311H182.921C181.589 37.1311 180.464 36.3181 180.053 35.0588C179.642 33.8003 180.074 32.4851 181.152 31.7083L224.39 0.572255C225.459 -0.196321 226.892 -0.191392 227.953 0.591159L270.273 31.7272C271.338 32.5097 271.758 33.8233 271.343 35.0736C270.928 36.323 269.804 37.1311 268.479 37.1311Z" fill="#CCCCCC"/>
<path d="M157.512 282.272H142.265V283.955H157.512V282.272Z" fill="#E6E6E6"/>
<path d="M806.542 350.294H588V73.4659C588 37.4389 617.496 8.12854 653.751 8.12854H740.791C777.046 8.12854 806.542 37.4389 806.542 73.4659V350.294Z" fill="#E6E6E6"/>
<path d="M731.859 70.4171H663.632C658.155 70.4171 653.699 65.9889 653.699 60.5456V42.4104C653.699 36.9671 658.155 32.5389 663.632 32.5389H731.859C737.337 32.5389 741.793 36.9671 741.793 42.4104V60.5456C741.793 65.9889 737.337 70.4171 731.859 70.4171Z" fill="white"/>
<path d="M699.389 149.119V13.5999H698.542V149.119H699.389Z" fill="#E6E6E6"/>
<path d="M780.927 298.949H763.545C758.529 298.949 754.448 294.893 754.448 289.908V237.283C754.448 232.298 758.529 228.243 763.545 228.243H780.927C785.943 228.243 790.024 232.298 790.024 237.283V289.908C790.024 294.893 785.943 298.949 780.927 298.949Z" fill="white"/>
<path d="M667.42 335.985H619.545C614.528 335.985 610.447 331.929 610.447 326.944V233.916C610.447 228.932 614.528 224.876 619.545 224.876H667.42C672.437 224.876 676.518 228.932 676.518 233.916V326.944C676.518 331.929 672.437 335.985 667.42 335.985Z" fill="white"/>
<path d="M677.689 232.03H609.321C606.748 232.03 604.572 230.459 603.779 228.026C602.985 225.594 603.819 223.053 605.902 221.552L640.453 196.672C642.52 195.185 645.287 195.199 647.338 196.708L681.156 221.588C683.213 223.102 684.024 225.64 683.222 228.055C682.42 230.47 680.249 232.03 677.689 232.03Z" fill="#CCCCCC"/>
<path d="M788.048 232.872H756.47C753.897 232.872 751.721 231.3 750.927 228.868C750.134 226.436 750.967 223.895 753.051 222.394L769.009 210.902C771.076 209.415 773.844 209.428 775.895 210.938L791.514 222.43C793.571 223.943 794.382 226.481 793.581 228.896C792.779 231.311 790.607 232.872 788.048 232.872Z" fill="#CCCCCC"/>
<path d="M773.962 183.631H754.416C749.996 183.631 746.4 180.057 746.4 175.665V120.89C746.4 116.498 749.996 112.925 754.416 112.925H773.962C778.382 112.925 781.977 116.498 781.977 120.89V175.665C781.977 180.057 778.382 183.631 773.962 183.631Z" fill="white"/>
<path d="M707.044 183.631H687.498C683.078 183.631 679.482 180.057 679.482 175.665V120.89C679.482 116.498 683.078 112.925 687.498 112.925H707.044C711.464 112.925 715.059 116.498 715.059 120.89V175.665C715.059 180.057 711.464 183.631 707.044 183.631Z" fill="white"/>
<path d="M639.279 183.631H619.733C615.313 183.631 611.717 180.057 611.717 175.665V120.89C611.717 116.498 615.313 112.925 619.733 112.925H639.279C643.698 112.925 647.294 116.498 647.294 120.89V175.665C647.294 180.057 643.698 183.631 639.279 183.631Z" fill="white"/>
<path d="M779.861 119.238H614.68C611.722 119.238 609.91 117.156 609.428 115.093C608.945 113.029 609.647 110.367 612.302 109.069L695.778 68.3069C697.282 67.5728 699.075 67.5794 700.575 68.3275L782.281 109.09C784.595 110.246 785.706 112.611 785.108 115.115C784.511 117.619 782.451 119.238 779.861 119.238Z" fill="#CCCCCC"/>
<path d="M806.118 349.874H691.341V328.734C691.341 312.078 704.927 298.528 721.627 298.528H806.118V349.874Z" fill="#3F3D56"/>
<path d="M724.8 268.646H713.789V309.049H724.8V268.646Z" fill="#3F3D56"/>
<path d="M806.118 268.646H795.106V309.049H806.118V268.646Z" fill="#3F3D56"/>
<path d="M798.495 272.013H723.106V272.855H798.495V272.013Z" fill="#3F3D56"/>
<path d="M790.024 148.278H607.059V149.119H790.024V148.278Z" fill="#E6E6E6"/>
<path d="M798.495 285.481H723.106V286.322H798.495V285.481Z" fill="#3F3D56"/>
<path d="M798.495 292.215H723.106V293.056H798.495V292.215Z" fill="#3F3D56"/>
<path d="M740.05 36.1311H654.492C653.16 36.1311 652.034 35.3181 651.623 34.0588C651.213 32.8003 651.644 31.4851 652.722 30.7083L695.96 -0.427745C697.03 -1.19632 698.462 -1.19139 699.523 -0.408841L741.844 30.7272C742.908 31.5097 743.328 32.8233 742.913 34.0736C742.499 35.323 741.374 36.1311 740.05 36.1311Z" fill="#CCCCCC"/>
<path d="M629.083 281.272H613.835V282.955H629.083V281.272Z" fill="#E6E6E6"/>
<path d="M153.006 348.342C153.076 348.929 153.096 349.476 153.056 350.012H123.361C123.09 349.476 122.86 348.919 122.66 348.342C119.03 337.976 125.001 320.722 117.429 295.139C111.808 276.155 101.316 261.306 96.4254 254.389C90.4142 245.881 83.6029 238.029 75.7114 225.486C74.0011 222.773 72.2407 219.831 70.4204 216.62C69.8103 215.547 62.7789 203.093 63.419 202.706C63.7191 202.527 65.5794 205.041 66.2095 205.886C71.7706 213.36 75.0013 216.63 79.6322 222.007C82.4427 225.267 85.7633 229.293 90.4242 235.505C102.377 251.417 108.348 259.368 110.428 265.322C110.978 266.912 113.909 275.519 119.43 286.194C122.25 291.64 123.661 294.364 124.431 294.145C126.611 293.519 123.671 270.967 114.429 248.425C112.849 244.589 111.668 242.134 109.428 237.492C105.787 229.919 85.5133 187.827 70.6104 162.632C68.74 159.461 66.9497 156.569 65.2994 154.034C64.9793 153.557 64.6693 153.09 64.3692 152.643C62.2888 149.562 60.4485 147.127 58.9181 145.556C58.108 144.721 56.0476 142.356 51.9168 137.605C50.2765 135.717 49.0762 134.315 48.2661 133.291C48.1461 133.142 48.0361 132.993 47.9461 132.864C46.9658 131.592 46.6858 130.976 46.9158 130.648C47.2459 130.181 48.5161 130.449 49.9064 130.936C50.0565 130.986 50.2165 131.045 50.3665 131.105C51.8768 131.661 53.4071 132.387 53.9172 132.636C58.5981 134.872 63.169 138.877 67.3998 143.638C68.9701 145.397 70.4804 147.256 71.9407 149.164C76.6415 155.326 80.7424 162.035 83.8429 167.551C87.6436 174.35 89.9241 179.349 89.9241 179.349C100.536 202.636 112.308 229.273 112.929 229.044C113.609 228.796 100.556 195.639 96.7555 177.63C95.4852 171.597 95.2552 167.263 96.9255 166.428C96.9855 166.398 97.0455 166.369 97.1155 166.349C97.3756 166.259 97.6156 166.269 97.7456 166.279C97.7456 166.279 99.2959 166.08 100.926 166.428C102.957 166.866 105.267 172.481 107.518 180.363C113.369 200.678 118.93 236.002 118.93 236.002C124.491 271.335 132.932 299.929 134.933 299.611C136.043 299.432 134.453 290.557 135.933 275.758C136.973 265.381 138.153 265.699 141.934 246.934C147.935 217.167 150.936 202.288 150.936 202.209C150.906 201.583 150.826 200.32 151.016 199.008C151.216 197.587 151.726 196.096 152.936 195.251C154.777 193.959 157.737 194.516 158.937 195.251C159.898 195.848 160.388 196.941 160.498 198.511C161.158 208.391 146.875 237.035 141.934 275.758C139.474 295.049 138.123 305.575 141.934 319.489C145.705 333.285 152.276 342.071 153.006 348.342Z" fill="#3F3D56"/>
<path d="M193.444 99.3398C185.239 97.8563 175.047 103.314 174.44 109.279C173.941 114.189 180.014 118.672 179.441 119.218C178.906 119.728 175.143 114.341 170.44 114.248C163.332 114.108 154.801 126.07 157.437 133.133C159.553 138.802 168.619 140.656 168.439 141.084C168.27 141.487 161.363 137.087 154.437 138.102C144.52 139.555 135.024 152.041 137.433 159.968C140.125 168.825 157.553 171.568 157.437 171.895C157.315 172.24 139.897 163.379 133.432 168.913C129.097 172.625 129.718 181.278 132.432 186.803C138.096 198.336 155.767 202.423 164.438 196.742C171.181 192.325 166.634 185.834 173.44 171.895C181.798 154.776 196.334 148.838 196.445 136.114C196.455 134.957 196.487 131.232 194.444 130.151C191.182 128.424 184.886 134.637 184.442 134.126C183.962 133.574 192.39 127.523 197.445 117.23C199.035 113.992 202.652 106.627 199.445 102.322C197.813 100.13 195.086 99.6366 193.444 99.3398Z" fill="#FFD643"/>
<path d="M147.435 80.4555C139.23 78.972 129.039 84.4299 128.432 90.3946C127.932 95.3045 134.005 99.7874 133.433 100.334C132.898 100.844 129.135 95.4569 124.431 95.3641C117.323 95.2238 108.792 107.186 111.428 114.248C113.544 119.918 122.61 121.772 122.43 122.199C122.261 122.603 115.354 118.203 108.428 119.218C98.5111 120.671 89.0152 133.157 91.4244 141.084C94.1165 149.941 111.544 152.684 111.428 153.011C111.306 153.356 93.888 144.495 87.4237 150.029C83.0879 153.741 83.7097 162.394 86.4235 167.919C92.0877 179.452 109.758 183.539 118.43 177.858C125.172 173.441 120.625 166.95 127.431 153.011C135.789 135.892 150.326 129.953 150.436 117.23C150.446 116.073 150.478 112.348 148.435 111.267C145.173 109.54 138.877 115.753 138.433 115.242C137.954 114.689 146.381 108.639 151.436 98.3458C153.026 95.1082 156.643 87.7424 153.436 83.4372C151.804 81.2454 149.077 80.7524 147.435 80.4555Z" fill="#FFF739"/>
<path d="M91.7227 58.3868C99.5001 61.3792 105.324 71.3219 102.707 76.7239C100.553 81.1706 93.0185 81.8427 93.2196 82.6055C93.4075 83.3184 99.4475 80.6765 103.508 83.0381C109.643 86.6064 110.633 101.235 104.674 105.89C99.8906 109.627 91.1844 106.505 91.1129 106.962C91.0454 107.394 99.2482 107.226 104.622 111.685C112.316 118.07 113.853 133.646 107.633 139.156C100.683 145.313 84.3788 138.61 84.3058 138.948C84.2286 139.306 103.74 140.787 106.345 148.861C108.092 154.276 103.015 161.333 97.7971 164.637C86.9063 171.534 69.6887 165.851 65.2782 156.507C61.8488 149.241 69.1373 146.065 70.6577 130.645C72.5246 111.708 63.2482 99.101 69.8399 88.1928C70.4393 87.2009 72.3693 84.007 74.6795 84.1449C78.3689 84.3652 80.4736 92.9309 81.1206 92.7253C81.8204 92.5029 77.812 82.9699 78.9099 71.5686C79.2553 67.9825 80.0409 59.8237 85.0378 57.8159C87.5819 56.7937 90.1666 57.7881 91.7227 58.3868Z" fill="#FFC700"/>
<path d="M3.3987 63.793C-1.505 70.4966 -0.975771 81.9889 4.16955 85.1192C8.405 87.696 15.1037 84.2024 15.3508 84.9517C15.5817 85.6521 9.06482 86.6851 6.94068 90.8567C3.73106 97.1601 10.8782 109.986 18.4253 110.689C24.4836 111.253 30.0967 103.94 30.4066 104.286C30.6989 104.612 23.7137 108.889 21.6302 115.531C18.647 125.04 25.8507 138.958 34.0834 140.238C43.2825 141.669 53.3275 127.254 53.5736 127.499C53.8338 127.759 38.2447 139.512 40.4595 147.7C41.945 153.192 50.0607 156.388 56.2481 156.354C69.1622 156.284 80.5314 142.235 79.141 132.006C78.0598 124.053 70.2023 125.31 60.5139 113.17C48.6162 98.2624 49.5351 82.6712 38.0458 77.0547C37.001 76.5439 33.637 74.8994 31.7709 76.2596C28.7905 78.4318 31.694 86.7638 31.0382 86.9395C30.3287 87.1295 28.4975 76.9593 21.3561 67.9694C19.1098 65.1417 13.9994 58.7086 8.705 59.7127C6.00948 60.2238 4.37984 62.4517 3.3987 63.793Z" fill="#FFEF63"/>
<path d="M10.4002 137.342C5.49646 144.046 6.02569 155.538 11.171 158.668C15.4065 161.245 22.1051 157.751 22.3522 158.501C22.5832 159.201 16.0663 160.234 13.9421 164.406C10.7325 170.709 17.8796 183.535 25.4267 184.238C31.4851 184.802 37.0982 177.489 37.4081 177.835C37.7003 178.161 30.7151 182.438 28.6316 189.08C25.6485 198.589 32.8521 212.507 41.0849 213.787C50.284 215.218 60.329 200.803 60.5751 201.048C60.8352 201.308 45.2462 213.061 47.461 221.249C48.9465 226.741 57.0622 229.937 63.2495 229.903C76.1636 229.833 87.5329 215.784 86.1424 205.555C85.0612 197.602 77.2037 198.859 67.5153 186.719C55.6176 171.811 56.5366 156.22 45.0473 150.604C44.0025 150.093 40.6385 148.448 38.7723 149.809C35.792 151.981 38.6954 160.313 38.0396 160.488C37.3302 160.678 35.499 150.508 28.3575 141.518C26.1113 138.691 21.0008 132.258 15.7065 133.262C13.0109 133.773 11.3813 136.001 10.4002 137.342Z" fill="#FAFF00"/>
<path d="M387.051 348.631C387.121 349.217 387.141 349.764 387.101 350.3H357.406C357.136 349.764 356.906 349.207 356.706 348.631C353.075 338.264 359.046 321.01 351.475 295.427C345.853 276.443 335.361 261.594 330.471 254.677C324.459 246.169 317.648 238.317 309.757 225.774C308.046 223.061 306.286 220.119 304.466 216.909C303.855 215.835 296.824 203.382 297.464 202.994C297.764 202.815 299.625 205.33 300.255 206.174C305.816 213.649 309.046 216.919 313.677 222.296C316.488 225.556 319.809 229.581 324.469 235.793C336.422 251.705 342.393 259.656 344.473 265.61C345.023 267.2 347.954 275.807 353.475 286.482C356.296 291.928 357.706 294.652 358.476 294.433C360.656 293.807 357.716 271.255 348.474 248.714C346.894 244.877 345.713 242.422 343.473 237.781C339.832 230.207 319.558 188.115 304.656 162.92C302.785 159.749 300.995 156.857 299.345 154.322C299.024 153.845 298.714 153.378 298.414 152.931C296.334 149.85 294.494 147.415 292.963 145.844C292.153 145.01 290.093 142.644 285.962 137.893C284.322 136.005 283.121 134.603 282.311 133.58C282.191 133.431 282.081 133.282 281.991 133.152C281.011 131.88 280.731 131.264 280.961 130.936C281.291 130.469 282.561 130.737 283.952 131.224C284.102 131.274 284.262 131.333 284.412 131.393C285.922 131.95 287.452 132.675 287.962 132.924C292.643 135.16 297.214 139.165 301.445 143.926C303.015 145.685 304.526 147.544 305.986 149.452C310.687 155.615 314.788 162.323 317.888 167.84C321.689 174.638 323.969 179.637 323.969 179.637C334.581 202.924 346.354 229.561 346.974 229.332C347.654 229.084 334.601 195.927 330.801 177.918C329.53 171.885 329.3 167.551 330.971 166.716C331.031 166.687 331.091 166.657 331.161 166.637C331.421 166.547 331.661 166.557 331.791 166.567C331.791 166.567 333.341 166.369 334.971 166.716C337.002 167.154 339.312 172.769 341.563 180.651C347.414 200.966 352.975 236.29 352.975 236.29C358.536 271.623 366.978 300.218 368.978 299.9C370.088 299.721 368.498 290.845 369.978 276.046C371.018 265.67 372.199 265.988 375.979 247.223C381.98 217.455 384.981 202.576 384.981 202.497C384.951 201.871 384.871 200.609 385.061 199.297C385.261 197.875 385.771 196.384 386.981 195.54C388.822 194.248 391.782 194.804 392.983 195.54C393.943 196.136 394.433 197.229 394.543 198.8C395.203 208.679 380.92 237.323 375.979 276.046C373.519 295.338 372.169 305.863 375.979 319.778C379.75 333.573 386.321 342.359 387.051 348.631Z" fill="#3F3D56"/>
<path d="M427.489 99.628C419.284 98.1445 409.093 103.602 408.486 109.567C407.986 114.477 414.059 118.96 413.486 119.506C412.952 120.017 409.189 114.629 404.485 114.537C397.377 114.396 388.846 126.358 391.482 133.421C393.598 139.09 402.664 140.944 402.484 141.372C402.315 141.775 395.408 137.375 388.482 138.39C378.565 139.843 369.069 152.329 371.478 160.256C374.17 169.114 391.598 171.856 391.482 172.183C391.36 172.528 373.942 163.667 367.478 169.201C363.142 172.913 363.764 181.566 366.477 187.092C372.142 198.624 389.812 202.711 398.484 197.031C405.226 192.613 400.679 186.123 407.485 172.183C415.843 155.065 430.38 149.126 430.49 136.402C430.5 135.245 430.532 131.52 428.489 130.439C425.227 128.712 418.931 134.926 418.487 134.415C418.007 133.862 426.435 127.812 431.49 117.518C433.08 114.281 436.697 106.915 433.49 102.61C431.858 100.418 429.131 99.9248 427.489 99.628Z" fill="#FFD53E"/>
<path d="M381.48 80.7439C373.275 79.2603 363.084 84.7182 362.477 90.6829C361.977 95.5928 368.05 100.076 367.478 100.622C366.943 101.132 363.18 95.7452 358.476 95.6524C351.368 95.5122 342.838 107.474 345.473 114.537C347.589 120.206 356.655 122.06 356.476 122.488C356.306 122.891 349.399 118.491 342.473 119.506C332.556 120.959 323.06 133.445 325.47 141.372C328.162 150.229 345.589 152.972 345.473 153.299C345.351 153.644 327.933 144.783 321.469 150.317C317.133 154.029 317.755 162.682 320.469 168.207C326.133 179.74 343.803 183.827 352.475 178.146C359.217 173.729 354.67 167.239 361.477 153.299C369.835 136.18 384.371 130.242 384.481 117.518C384.491 116.361 384.523 112.636 382.481 111.555C379.218 109.828 372.922 116.042 372.479 115.53C371.999 114.978 380.427 108.927 385.481 98.6341C387.071 95.3965 390.688 88.0307 387.482 83.7256C385.849 81.5337 383.122 81.0407 381.48 80.7439Z" fill="#FFD53E"/>
<path d="M325.768 58.675C333.545 61.6674 339.369 71.6101 336.752 77.0121C334.599 81.4588 327.064 82.1309 327.265 82.8937C327.453 83.6066 333.493 80.9647 337.553 83.3263C343.689 86.8947 344.678 101.523 338.719 106.178C333.936 109.915 325.23 106.793 325.158 107.251C325.091 107.682 333.293 107.514 338.667 111.973C346.361 118.358 347.898 133.934 341.678 139.444C334.728 145.602 318.424 138.898 318.351 139.237C318.274 139.595 337.785 141.075 340.39 149.149C342.137 154.565 337.06 161.621 331.842 164.926C320.951 171.822 303.734 166.139 299.323 156.795C295.894 149.529 303.183 146.353 304.703 130.933C306.57 111.997 297.293 99.3892 303.885 88.481C304.485 87.4891 306.414 84.2952 308.725 84.4331C312.414 84.6534 314.519 93.2191 315.166 93.0135C315.866 92.7911 311.857 83.2581 312.955 71.8568C313.3 68.2707 314.086 60.1119 319.083 58.1041C321.627 57.0819 324.212 58.0763 325.768 58.675Z" fill="#FFDD63"/>
<path d="M237.444 64.0812C232.54 70.7848 233.069 82.2771 238.215 85.4074C242.45 87.9843 249.149 84.4906 249.396 85.24C249.627 85.9403 243.11 86.9733 240.986 91.1449C237.776 97.4483 244.923 110.274 252.47 110.977C258.529 111.541 264.142 104.228 264.452 104.574C264.744 104.901 257.759 109.177 255.675 115.819C252.692 125.329 259.896 139.246 268.129 140.527C277.328 141.957 287.373 127.542 287.619 127.788C287.879 128.047 272.29 139.8 274.505 147.988C275.99 153.48 284.106 156.676 290.293 156.642C303.207 156.572 314.577 142.523 313.186 132.295C312.105 124.341 304.247 125.598 294.559 113.458C282.661 98.5506 283.58 82.9594 272.091 77.3429C271.046 76.8321 267.682 75.1876 265.816 76.5478C262.836 78.72 265.739 87.052 265.083 87.2277C264.374 87.4177 262.543 77.2475 255.401 68.2576C253.155 65.4299 248.045 58.9968 242.75 60.0009C240.055 60.512 238.425 62.7399 237.444 64.0812Z" fill="#FFD53E"/>
<path d="M244.445 137.63C239.541 144.334 240.071 155.826 245.216 158.956C249.451 161.533 256.15 158.039 256.397 158.789C256.628 159.489 250.111 160.522 247.987 164.694C244.777 170.997 251.925 183.823 259.472 184.526C265.53 185.09 271.143 177.777 271.453 178.123C271.745 178.449 264.76 182.726 262.677 189.368C259.693 198.877 266.897 212.795 275.13 214.075C284.329 215.506 294.374 201.091 294.62 201.336C294.88 201.596 279.291 213.349 281.506 221.537C282.991 227.029 291.107 230.225 297.294 230.191C310.209 230.121 321.578 216.072 320.187 205.843C319.106 197.89 311.249 199.147 301.56 187.007C289.663 172.099 290.582 156.508 279.092 150.892C278.047 150.381 274.683 148.736 272.817 150.097C269.837 152.269 272.74 160.601 272.085 160.777C271.375 160.966 269.544 150.796 262.402 141.806C260.156 138.979 255.046 132.546 249.751 133.55C247.056 134.061 245.426 136.289 244.445 137.63Z" fill="#FFC700"/>
<path d="M814.994 348.631C814.924 349.217 814.904 349.764 814.944 350.3H844.639C844.909 349.764 845.139 349.207 845.339 348.631C848.97 338.264 842.999 321.01 850.57 295.427C856.191 276.443 866.683 261.594 871.574 254.677C877.586 246.169 884.397 238.317 892.288 225.774C893.999 223.061 895.759 220.119 897.579 216.909C898.19 215.835 905.221 203.382 904.581 202.994C904.281 202.815 902.42 205.33 901.79 206.174C896.229 213.649 892.999 216.919 888.368 222.296C885.557 225.556 882.236 229.581 877.576 235.793C865.623 251.705 859.652 259.656 857.572 265.61C857.022 267.2 854.091 275.807 848.57 286.482C845.749 291.928 844.339 294.652 843.569 294.433C841.389 293.807 844.329 271.255 853.571 248.714C855.151 244.877 856.332 242.422 858.572 237.781C862.213 230.207 882.487 188.115 897.389 162.92C899.26 159.749 901.05 156.857 902.7 154.322C903.021 153.845 903.331 153.378 903.631 152.931C905.711 149.85 907.551 147.415 909.082 145.844C909.892 145.01 911.952 142.644 916.083 137.893C917.723 136.005 918.924 134.603 919.734 133.58C919.854 133.431 919.964 133.282 920.054 133.152C921.034 131.88 921.314 131.264 921.084 130.936C920.754 130.469 919.484 130.737 918.093 131.224C917.943 131.274 917.783 131.333 917.633 131.393C916.123 131.95 914.593 132.675 914.083 132.924C909.402 135.16 904.831 139.165 900.6 143.926C899.03 145.685 897.519 147.544 896.059 149.452C891.358 155.615 887.257 162.323 884.157 167.84C880.356 174.638 878.076 179.637 878.076 179.637C867.464 202.924 855.691 229.561 855.071 229.332C854.391 229.084 867.444 195.927 871.244 177.918C872.515 171.885 872.745 167.551 871.074 166.716C871.014 166.687 870.954 166.657 870.884 166.637C870.624 166.547 870.384 166.557 870.254 166.567C870.254 166.567 868.704 166.369 867.074 166.716C865.043 167.154 862.733 172.769 860.482 180.651C854.631 200.966 849.07 236.29 849.07 236.29C843.509 271.623 835.067 300.218 833.067 299.9C831.957 299.721 833.547 290.845 832.067 276.046C831.027 265.67 829.847 265.988 826.066 247.223C820.065 217.455 817.064 202.576 817.064 202.497C817.094 201.871 817.174 200.609 816.984 199.297C816.784 197.875 816.274 196.384 815.064 195.54C813.223 194.248 810.263 194.804 809.062 195.54C808.102 196.136 807.612 197.229 807.502 198.8C806.842 208.679 821.125 237.323 826.066 276.046C828.526 295.338 829.876 305.863 826.066 319.778C822.295 333.573 815.724 342.359 814.994 348.631Z" fill="#3F3D56"/>
<path d="M774.556 99.628C782.761 98.1445 792.953 103.602 793.56 109.567C794.06 114.477 787.987 118.96 788.559 119.506C789.094 120.017 792.857 114.629 797.561 114.537C804.668 114.396 813.199 126.358 810.563 133.421C808.447 139.09 799.381 140.944 799.561 141.372C799.73 141.775 806.638 137.375 813.564 138.39C823.48 139.843 832.976 152.329 830.567 160.256C827.875 169.114 810.447 171.856 810.563 172.183C810.685 172.528 828.103 163.667 834.568 169.201C838.903 172.913 838.282 181.566 835.568 187.092C829.904 198.624 812.233 202.711 803.562 197.031C796.819 192.613 801.366 186.123 794.56 172.183C786.202 155.065 771.666 149.126 771.556 136.402C771.546 135.245 771.513 131.52 773.556 130.439C776.818 128.712 783.114 134.926 783.558 134.415C784.038 133.862 775.61 127.812 770.555 117.518C768.966 114.281 765.348 106.915 768.555 102.61C770.187 100.418 772.914 99.9248 774.556 99.628Z" fill="#FFCA63"/>
<path d="M820.565 80.7439C828.77 79.2603 838.962 84.7182 839.569 90.6829C840.068 95.5928 833.995 100.076 834.568 100.622C835.102 101.132 838.865 95.7452 843.569 95.6524C850.677 95.5122 859.208 107.474 856.572 114.537C854.456 120.206 845.39 122.06 845.57 122.488C845.739 122.891 852.646 118.491 859.572 119.506C869.489 120.959 878.985 133.445 876.576 141.372C873.884 150.229 856.456 152.972 856.572 153.299C856.694 153.644 874.112 144.783 880.576 150.317C884.912 154.029 884.29 162.682 881.577 168.207C875.912 179.74 858.242 183.827 849.57 178.146C842.828 173.729 847.375 167.239 840.569 153.299C832.211 136.18 817.675 130.242 817.564 117.518C817.554 116.361 817.522 112.636 819.565 111.555C822.827 109.828 829.123 116.042 829.567 115.53C830.047 114.978 821.619 108.927 816.564 98.6341C814.974 95.3965 811.357 88.0307 814.564 83.7256C816.196 81.5337 818.923 81.0407 820.565 80.7439Z" fill="#FFF739"/>
<path d="M876.278 58.675C868.5 61.6674 862.677 71.6101 865.293 77.0121C867.447 81.4588 874.982 82.1309 874.781 82.8937C874.593 83.6066 868.553 80.9647 864.492 83.3263C858.357 86.8947 857.367 101.523 863.326 106.178C868.11 109.915 876.816 106.793 876.888 107.251C876.955 107.682 868.752 107.514 863.379 111.973C855.685 118.358 854.147 133.934 860.367 139.444C867.317 145.602 883.622 138.898 883.695 139.237C883.772 139.595 864.261 141.075 861.656 149.149C859.908 154.565 864.985 161.621 870.203 164.926C881.094 171.822 898.312 166.139 902.722 156.795C906.152 149.529 898.863 146.353 897.343 130.933C895.476 111.997 904.752 99.3892 898.16 88.481C897.561 87.4891 895.631 84.2952 893.321 84.4331C889.631 84.6534 887.527 93.2191 886.88 93.0135C886.18 92.7911 890.188 83.2581 889.091 71.8568C888.745 68.2707 887.959 60.1119 882.963 58.1041C880.419 57.0819 877.834 58.0763 876.278 58.675Z" fill="#FCFF63"/>
<path d="M964.601 64.0812C969.505 70.7848 968.976 82.2771 963.831 85.4074C959.595 87.9843 952.896 84.4906 952.649 85.24C952.418 85.9403 958.935 86.9733 961.059 91.1449C964.269 97.4483 957.122 110.274 949.575 110.977C943.517 111.541 937.903 104.228 937.594 104.574C937.301 104.901 944.286 109.177 946.37 115.819C949.353 125.329 942.15 139.246 933.917 140.527C924.718 141.957 914.673 127.542 914.427 127.788C914.166 128.047 929.755 139.8 927.541 147.988C926.055 153.48 917.939 156.676 911.752 156.642C898.838 156.572 887.469 142.523 888.859 132.295C889.94 124.341 897.798 125.598 907.486 113.458C919.384 98.5506 918.465 82.9594 929.954 77.3429C930.999 76.8321 934.363 75.1876 936.229 76.5478C939.21 78.72 936.306 87.052 936.962 87.2277C937.671 87.4177 939.503 77.2475 946.644 68.2576C948.89 65.4299 954.001 58.9968 959.295 60.0009C961.991 60.512 963.62 62.7399 964.601 64.0812Z" fill="#FFC700"/>
<path d="M957.6 137.63C962.504 144.334 961.974 155.826 956.829 158.956C952.594 161.533 945.895 158.039 945.648 158.789C945.417 159.489 951.934 160.522 954.058 164.694C957.268 170.997 950.12 183.823 942.573 184.526C936.515 185.09 930.902 177.777 930.592 178.123C930.3 178.449 937.285 182.726 939.368 189.368C942.352 198.877 935.148 212.795 926.915 214.075C917.716 215.506 907.671 201.091 907.425 201.336C907.165 201.596 922.754 213.349 920.539 221.537C919.054 227.029 910.938 230.225 904.751 230.191C891.837 230.121 880.467 216.072 881.858 205.843C882.939 197.89 890.796 199.147 900.485 187.007C912.383 172.099 911.464 156.508 922.953 150.892C923.998 150.381 927.362 148.736 929.228 150.097C932.208 152.269 929.305 160.601 929.96 160.777C930.67 160.966 932.501 150.796 939.643 141.806C941.889 138.979 946.999 132.546 952.294 133.55C954.989 134.061 956.619 136.289 957.6 137.63Z" fill="#FFD643"/>
<path d="M847.52 351.165C847.52 351.632 847.15 352 846.68 352H73.3308V350.33H846.68C847.15 350.33 847.52 350.708 847.52 351.165Z" fill="#E6E6E6"/>
<path d="M146.128 168.448C146.128 167.424 146.384 166.592 146.896 165.952C147.472 165.248 148.336 164.928 149.488 164.992H150.832C151.728 156.096 152.176 146.208 152.176 135.328C152.176 126.56 152.112 119.616 151.984 114.496L150.928 114.784C150.16 114.912 149.488 114.752 148.912 114.304C148.4 113.856 148.144 113.152 148.144 112.192C148.144 111.168 148.464 110.336 149.104 109.696C149.808 108.992 150.992 108.288 152.656 107.584C158.096 105.28 164.048 104.128 170.512 104.128C175.312 104.128 179.664 104.864 183.568 106.336C187.472 107.808 190.544 109.952 192.784 112.768C195.088 115.52 196.24 118.816 196.24 122.656C196.24 126.624 194.608 130.016 191.344 132.832C188.144 135.648 183.984 137.408 178.864 138.112C183.92 138.944 187.92 140.896 190.864 143.968C193.808 146.976 195.28 150.368 195.28 154.144C195.28 158.176 194.096 161.6 191.728 164.416C189.36 167.168 186.192 169.216 182.224 170.56C178.256 171.84 173.936 172.384 169.264 172.192L162.544 171.904L157.552 171.808C157.104 173.408 155.984 174.208 154.192 174.208C152.08 174.208 150.8 173.312 150.352 171.52L149.104 171.424C147.12 171.296 146.128 170.304 146.128 168.448ZM158.032 165.376C162.896 165.504 166.512 165.568 168.88 165.568C175.216 165.568 179.984 164.672 183.184 162.88C186.384 161.088 187.984 158.176 187.984 154.144C187.984 149.664 186.128 146.496 182.416 144.64C178.704 142.72 173.488 141.6 166.768 141.28C165.36 141.216 164.24 140.992 163.408 140.608C162.64 140.16 162.256 139.264 162.256 137.92C162.256 136.576 162.64 135.68 163.408 135.232C164.24 134.784 165.296 134.528 166.576 134.464C170.8 134.208 174.416 133.824 177.424 133.312C180.432 132.8 183.088 131.712 185.392 130.048C187.696 128.384 188.848 125.92 188.848 122.656C188.848 118.688 187.184 115.68 183.856 113.632C180.592 111.584 176.144 110.56 170.512 110.56C168.848 110.56 166.96 110.688 164.848 110.944C162.736 111.2 160.912 111.552 159.376 112C159.504 117.952 159.568 125.696 159.568 135.232C159.568 145.344 159.056 155.392 158.032 165.376ZM237.337 164.8C239.513 164.8 240.601 165.92 240.601 168.16C240.601 170.464 239.481 171.616 237.241 171.616L208.153 171.232C206.169 171.168 205.177 170.016 205.177 167.776C205.177 166.624 205.465 165.792 206.041 165.28C206.681 164.704 207.449 164.416 208.345 164.416L219.289 164.608C220.441 146.176 221.017 128.256 221.017 110.848C218.137 110.912 214.393 111.104 209.785 111.424L207.193 111.616C206.553 111.616 205.977 111.296 205.465 110.656C204.953 110.016 204.697 109.184 204.697 108.16C204.697 106.304 205.721 105.184 207.769 104.8C208.921 104.608 211.385 104.416 215.161 104.224C218.937 104.032 222.617 103.936 226.201 103.936C231.577 103.936 235.385 104.128 237.625 104.512C238.585 104.704 239.321 105.024 239.833 105.472C240.345 105.856 240.601 106.624 240.601 107.776C240.601 108.864 240.281 109.728 239.641 110.368C239.065 110.944 238.265 111.2 237.241 111.136C234.745 110.944 231.801 110.816 228.409 110.752C228.409 121.12 228.281 130.496 228.025 138.88C227.769 147.2 227.289 155.808 226.585 164.704L237.337 164.8ZM290.471 163.36C291.815 163.232 292.807 163.456 293.447 164.032C294.151 164.608 294.503 165.504 294.503 166.72C294.503 167.808 294.247 168.608 293.735 169.12C293.223 169.568 292.519 169.888 291.623 170.08C289.127 170.592 284.295 170.848 277.127 170.848H274.055C269.767 170.848 265.927 170.784 262.535 170.656C259.207 170.528 255.431 170.208 251.207 169.696C249.479 169.504 248.615 168.448 248.615 166.528C248.615 165.568 248.839 164.768 249.287 164.128C249.735 163.488 250.311 163.168 251.015 163.168C251.655 163.168 252.199 163.2 252.647 163.264C253.671 156.864 254.215 149.056 254.279 139.84H253.127C252.039 139.84 251.207 139.552 250.631 138.976C250.055 138.4 249.767 137.568 249.767 136.48C249.767 134.24 250.759 133.12 252.743 133.12H254.279V122.464C254.279 117.856 254.247 114.4 254.183 112.096C252.391 111.776 251.495 110.752 251.495 109.024C251.495 107.68 251.815 106.816 252.455 106.432C253.159 105.984 254.119 105.696 255.335 105.568C258.919 105.184 264.423 104.992 271.847 104.992C281.127 104.992 287.783 105.28 291.815 105.856C292.903 106.048 293.703 106.368 294.215 106.816C294.791 107.2 295.079 107.936 295.079 109.024C295.079 110.112 294.791 110.976 294.215 111.616C293.639 112.256 292.903 112.512 292.007 112.384C285.607 111.872 279.719 111.616 274.343 111.616C270.183 111.616 265.863 111.744 261.383 112C261.639 120.96 261.767 128.032 261.767 133.216L268.199 133.312C273.319 133.44 276.583 133.504 277.991 133.504C281.447 133.632 283.623 133.696 284.519 133.696C286.311 133.696 287.207 134.752 287.207 136.864C287.207 137.952 286.983 138.816 286.535 139.456C286.087 140.096 285.415 140.416 284.519 140.416L279.431 140.32C276.551 140.128 272.743 140.032 268.007 140.032C265.127 140.032 263.015 140 261.671 139.936C261.607 147.232 261.063 155.168 260.039 163.744C264.007 164.064 268.967 164.224 274.919 164.224C278.375 164.224 281.095 164.16 283.079 164.032C285.127 163.904 287.591 163.68 290.471 163.36ZM358.078 103.552C359.358 103.552 360.318 103.904 360.958 104.608C361.598 105.248 361.918 106.176 361.918 107.392L361.822 142.432C361.822 150.176 361.566 156.096 361.054 160.192C360.606 164.288 359.902 167.104 358.942 168.64C358.046 170.112 356.798 170.848 355.198 170.848C353.278 170.848 351.262 169.856 349.15 167.872C347.038 165.824 344.67 162.88 342.046 159.04C339.422 155.136 335.614 149.248 330.622 141.376C325.95 133.952 322.398 128.416 319.966 124.768C317.598 121.056 315.55 118.016 313.822 115.648C313.822 120 313.854 123.488 313.918 126.112L314.014 138.88L314.11 167.968C314.11 168.8 313.758 169.536 313.054 170.176C312.35 170.752 311.454 171.04 310.366 171.04C309.342 171.04 308.446 170.752 307.678 170.176C306.974 169.536 306.622 168.8 306.622 167.968V138.784C306.622 132.704 306.59 127.968 306.526 124.576L306.43 110.272C306.43 108.224 306.75 106.72 307.39 105.76C308.03 104.736 309.15 104.224 310.75 104.224C312.478 104.224 314.206 104.992 315.934 106.528C317.662 108.064 319.422 110.176 321.214 112.864C323.07 115.552 325.758 119.712 329.278 125.344C328.766 124.448 330.462 127.2 334.366 133.6C342.302 146.272 348.638 155.648 353.374 161.728C354.014 157.056 354.334 150.592 354.334 142.336V106.912C354.334 105.888 354.654 105.088 355.294 104.512C355.998 103.872 356.926 103.552 358.078 103.552ZM401.113 172C399.449 172 397.945 171.616 396.601 170.848C395.257 170.016 394.201 168.864 393.433 167.392C391.641 164 388.089 153.6 382.777 136.192C379.577 125.312 378.105 120.256 378.361 121.024C377.273 117.504 376.025 113.248 374.617 108.256C374.489 107.744 374.425 107.392 374.425 107.2C374.425 106.304 374.809 105.568 375.577 104.992C376.409 104.352 377.337 104.032 378.361 104.032C380.025 104.032 381.049 104.64 381.433 105.856C383.481 112.576 385.113 118.208 386.329 122.752L389.881 134.944C392.377 143.2 394.265 149.248 395.545 153.088C396.825 156.864 397.849 159.488 398.617 160.96C399.449 162.368 400.249 163.072 401.017 163.072C401.849 163.008 402.617 162.304 403.321 160.96C404.089 159.552 405.049 157.024 406.201 153.376C407.353 149.664 409.113 143.52 411.481 134.944L419.257 106.048C419.705 104.832 420.793 104.224 422.521 104.224C423.673 104.224 424.633 104.544 425.401 105.184C426.169 105.76 426.553 106.528 426.553 107.488C426.553 107.872 426.521 108.16 426.457 108.352C424.921 114.176 422.873 121.568 420.313 130.528L418.777 135.904C413.849 153.248 410.521 163.744 408.793 167.392C408.153 168.8 407.129 169.92 405.721 170.752C404.313 171.584 402.777 172 401.113 172ZM478.065 163.36C479.409 163.232 480.401 163.456 481.041 164.032C481.745 164.608 482.097 165.504 482.097 166.72C482.097 167.808 481.841 168.608 481.329 169.12C480.817 169.568 480.113 169.888 479.217 170.08C476.721 170.592 471.889 170.848 464.721 170.848H461.649C457.361 170.848 453.521 170.784 450.129 170.656C446.801 170.528 443.025 170.208 438.801 169.696C437.073 169.504 436.209 168.448 436.209 166.528C436.209 165.568 436.433 164.768 436.881 164.128C437.329 163.488 437.905 163.168 438.609 163.168C439.249 163.168 439.793 163.2 440.241 163.264C441.265 156.864 441.809 149.056 441.873 139.84H440.721C439.633 139.84 438.801 139.552 438.225 138.976C437.649 138.4 437.361 137.568 437.361 136.48C437.361 134.24 438.353 133.12 440.337 133.12H441.873V122.464C441.873 117.856 441.841 114.4 441.777 112.096C439.985 111.776 439.089 110.752 439.089 109.024C439.089 107.68 439.409 106.816 440.049 106.432C440.753 105.984 441.713 105.696 442.929 105.568C446.513 105.184 452.017 104.992 459.441 104.992C468.721 104.992 475.377 105.28 479.409 105.856C480.497 106.048 481.297 106.368 481.809 106.816C482.385 107.2 482.673 107.936 482.673 109.024C482.673 110.112 482.385 110.976 481.809 111.616C481.233 112.256 480.497 112.512 479.601 112.384C473.201 111.872 467.313 111.616 461.937 111.616C457.777 111.616 453.457 111.744 448.977 112C449.233 120.96 449.361 128.032 449.361 133.216L455.793 133.312C460.913 133.44 464.177 133.504 465.585 133.504C469.041 133.632 471.217 133.696 472.113 133.696C473.905 133.696 474.801 134.752 474.801 136.864C474.801 137.952 474.577 138.816 474.129 139.456C473.681 140.096 473.009 140.416 472.113 140.416L467.025 140.32C464.145 140.128 460.337 140.032 455.601 140.032C452.721 140.032 450.609 140 449.265 139.936C449.201 147.232 448.657 155.168 447.633 163.744C451.601 164.064 456.561 164.224 462.513 164.224C465.969 164.224 468.689 164.16 470.673 164.032C472.721 163.904 475.185 163.68 478.065 163.36ZM545.672 103.552C546.952 103.552 547.912 103.904 548.552 104.608C549.192 105.248 549.512 106.176 549.512 107.392L549.416 142.432C549.416 150.176 549.16 156.096 548.648 160.192C548.2 164.288 547.496 167.104 546.536 168.64C545.64 170.112 544.392 170.848 542.792 170.848C540.872 170.848 538.856 169.856 536.744 167.872C534.632 165.824 532.264 162.88 529.64 159.04C527.016 155.136 523.208 149.248 518.216 141.376C513.544 133.952 509.992 128.416 507.56 124.768C505.192 121.056 503.144 118.016 501.416 115.648C501.416 120 501.448 123.488 501.512 126.112L501.608 138.88L501.704 167.968C501.704 168.8 501.352 169.536 500.648 170.176C499.944 170.752 499.048 171.04 497.96 171.04C496.936 171.04 496.04 170.752 495.272 170.176C494.568 169.536 494.216 168.8 494.216 167.968V138.784C494.216 132.704 494.184 127.968 494.12 124.576L494.024 110.272C494.024 108.224 494.344 106.72 494.984 105.76C495.624 104.736 496.744 104.224 498.344 104.224C500.072 104.224 501.8 104.992 503.528 106.528C505.256 108.064 507.016 110.176 508.808 112.864C510.664 115.552 513.352 119.712 516.872 125.344C516.36 124.448 518.056 127.2 521.96 133.6C529.896 146.272 536.232 155.648 540.968 161.728C541.608 157.056 541.928 150.592 541.928 142.336V106.912C541.928 105.888 542.248 105.088 542.888 104.512C543.592 103.872 544.52 103.552 545.672 103.552ZM592.931 164.8C595.107 164.8 596.195 165.92 596.195 168.16C596.195 170.464 595.075 171.616 592.835 171.616L563.747 171.232C561.763 171.168 560.771 170.016 560.771 167.776C560.771 166.624 561.059 165.792 561.635 165.28C562.275 164.704 563.043 164.416 563.939 164.416L574.883 164.608C576.035 146.176 576.611 128.256 576.611 110.848C573.731 110.912 569.987 111.104 565.379 111.424L562.787 111.616C562.147 111.616 561.571 111.296 561.059 110.656C560.547 110.016 560.291 109.184 560.291 108.16C560.291 106.304 561.315 105.184 563.363 104.8C564.515 104.608 566.979 104.416 570.755 104.224C574.531 104.032 578.211 103.936 581.795 103.936C587.171 103.936 590.979 104.128 593.219 104.512C594.179 104.704 594.915 105.024 595.427 105.472C595.939 105.856 596.195 106.624 596.195 107.776C596.195 108.864 595.875 109.728 595.235 110.368C594.659 110.944 593.859 111.2 592.835 111.136C590.339 110.944 587.395 110.816 584.003 110.752C584.003 121.12 583.875 130.496 583.619 138.88C583.363 147.2 582.883 155.808 582.179 164.704L592.931 164.8ZM618.609 104.992C631.601 105.824 641.777 108.896 649.137 114.208C656.561 119.456 660.273 127.168 660.273 137.344C660.273 144.192 658.545 150.176 655.089 155.296C651.697 160.416 646.769 164.384 640.305 167.2C633.905 169.952 626.353 171.328 617.649 171.328H610.833C609.425 171.328 608.401 171.072 607.761 170.56C607.121 170.048 606.801 169.184 606.801 167.968C606.801 165.792 607.825 164.704 609.873 164.704H613.137L611.697 111.52H611.025C609.617 111.52 608.529 111.296 607.761 110.848C607.057 110.4 606.705 109.568 606.705 108.352C606.705 107.008 607.057 106.08 607.761 105.568C608.529 105.056 609.617 104.8 611.025 104.8H612.081C612.657 103.648 613.745 103.072 615.345 103.072C617.073 103.072 618.161 103.712 618.609 104.992ZM620.433 164.704C626.833 164.448 632.465 163.232 637.329 161.056C642.257 158.816 646.097 155.68 648.849 151.648C651.601 147.616 652.977 142.848 652.977 137.344C652.977 121.856 641.681 113.344 619.089 111.808L620.433 164.704ZM702.563 171.232C696.611 171.232 691.203 170.08 686.339 167.776C681.475 165.408 677.603 161.824 674.723 157.024C671.843 152.16 670.403 146.176 670.403 139.072C670.403 132.352 671.715 126.336 674.339 121.024C676.963 115.712 680.675 111.584 685.475 108.64C690.275 105.632 695.811 104.128 702.083 104.128C708.419 104.128 714.179 105.664 719.363 108.736C724.547 111.744 728.611 115.936 731.555 121.312C734.563 126.688 736.067 132.768 736.067 139.552C736.067 146.4 734.531 152.224 731.459 157.024C728.387 161.76 724.291 165.312 719.171 167.68C714.115 170.048 708.579 171.232 702.563 171.232ZM703.043 164.416C707.331 164.416 711.427 163.552 715.331 161.824C719.235 160.032 722.435 157.248 724.931 153.472C727.427 149.632 728.675 144.864 728.675 139.168C728.675 133.792 727.555 128.96 725.315 124.672C723.075 120.384 719.939 117.024 715.907 114.592C711.939 112.16 707.459 110.944 702.467 110.944C697.603 110.944 693.283 112.128 689.507 114.496C685.795 116.8 682.883 120.032 680.771 124.192C678.723 128.352 677.699 133.152 677.699 138.592C677.699 144.672 678.947 149.664 681.443 153.568C683.939 157.408 687.107 160.192 690.947 161.92C694.787 163.584 698.819 164.416 703.043 164.416ZM769.282 171.904C764.61 171.904 760.61 170.976 757.282 169.12C753.954 167.2 751.426 164.672 749.698 161.536C748.034 158.336 747.202 154.88 747.202 151.168C747.202 150.016 747.458 149.12 747.97 148.48C748.546 147.84 749.506 147.52 750.85 147.52C753.346 147.52 754.594 148.576 754.594 150.688C754.594 153.696 755.266 156.288 756.61 158.464C757.954 160.64 759.746 162.304 761.986 163.456C764.226 164.608 766.658 165.184 769.282 165.184C773.122 165.184 776.258 164.288 778.69 162.496C781.186 160.704 782.434 158.112 782.434 154.72C782.434 152.224 781.762 150.176 780.418 148.576C779.074 146.912 777.314 145.6 775.138 144.64C772.962 143.616 770.178 142.592 766.786 141.568C763.138 140.544 760.034 139.488 757.474 138.4C754.914 137.248 752.514 135.424 750.274 132.928C748.098 130.432 747.01 127.136 747.01 123.04C747.01 119.392 747.97 116.128 749.89 113.248C751.81 110.368 754.37 108.128 757.57 106.528C760.77 104.928 764.29 104.128 768.13 104.128C772.098 104.128 775.682 104.992 778.882 106.72C782.146 108.448 784.674 110.72 786.466 113.536C788.322 116.352 789.25 119.328 789.25 122.464C789.25 123.872 788.962 124.864 788.386 125.44C787.874 126.016 786.978 126.304 785.698 126.304C784.226 126.304 783.234 126.016 782.722 125.44C782.21 124.864 781.954 124.064 781.954 123.04C781.954 119.648 780.674 116.768 778.114 114.4C775.554 112.032 772.226 110.848 768.13 110.848C764.034 110.848 760.706 112.032 758.146 114.4C755.65 116.704 754.402 119.616 754.402 123.136C754.402 125.504 755.074 127.456 756.418 128.992C757.826 130.464 759.554 131.616 761.602 132.448C763.714 133.28 766.69 134.272 770.53 135.424C773.794 136.448 776.738 137.6 779.362 138.88C782.05 140.096 784.45 142.016 786.562 144.64C788.674 147.264 789.73 150.592 789.73 154.624C789.73 158.08 788.834 161.12 787.042 163.744C785.314 166.368 782.882 168.384 779.746 169.792C776.674 171.2 773.186 171.904 769.282 171.904Z" fill="black"/>
</g>
<defs>
<clipPath id="clip0_49_59">
<rect width="968" height="352" fill="white"/>
</clipPath>
</defs>
</svg>
